<?xml version="1.0" encoding="UTF-8" ?>
<!DOCTYPE svg PUBLIC "-//W3C//DTD SVG 1.1//EN" "http://www.w3.org/Graphics/SVG/1.1/DTD/svg11.dtd">
<svg width="60pt" height="40pt" viewBox="0 0 499 138" version="1.1" xmlns="http://www.w3.org/2000/svg">
<g id="#00aa00ff">
<path fill="#00aa00" opacity="1.00" d=" M 279.09 0.00 L 291.70 0.00 C 291.54 5.74 291.69 11.48 292.33 17.20 C 291.12 18.85 288.81 19.08 287.09 19.99 C 270.99 26.63 259.28 40.14 247.95 52.83 C 233.16 69.10 220.51 87.15 208.41 105.47 C 203.63 112.58 198.91 119.80 193.30 126.30 C 190.19 129.39 186.68 133.07 182.15 133.62 C 176.72 131.14 172.85 126.00 170.89 120.47 C 168.20 113.21 169.96 105.39 171.23 98.04 C 176.34 71.74 192.14 49.15 198.71 23.32 C 183.71 31.55 169.90 43.74 164.11 60.28 C 160.86 58.18 157.61 55.53 156.43 51.69 C 155.89 50.20 157.42 49.17 158.16 48.10 C 171.96 32.96 189.16 20.63 208.60 13.89 C 211.68 12.80 214.87 13.90 217.75 15.07 C 217.62 18.99 218.19 23.11 216.54 26.80 C 213.19 34.73 208.60 42.05 204.65 49.68 C 192.46 72.43 181.36 96.55 178.48 122.47 C 183.61 118.19 187.70 112.84 191.74 107.57 C 205.68 88.92 215.86 67.70 230.88 49.83 C 245.10 31.60 259.59 12.93 279.09 0.00 Z" />
<path fill="#00aa00" opacity="1.00" d=" M 73.99 10.32 C 89.62 7.63 106.98 9.03 119.96 18.99 C 140.35 32.59 144.07 64.08 129.00 82.94 C 110.70 107.23 81.39 121.07 51.84 125.62 C 42.90 126.75 34.00 129.19 24.92 128.43 C 19.66 127.79 13.69 126.21 10.66 121.48 C 15.62 118.34 21.78 115.93 24.36 110.25 C 31.59 95.43 39.55 80.97 47.15 66.34 C 36.83 69.31 26.03 70.34 15.34 69.41 C 10.22 67.57 4.74 66.64 0.00 63.85 L 0.00 63.33 C 1.89 58.77 3.36 54.01 5.99 49.80 C 12.66 38.50 23.27 30.01 34.78 23.99 C 47.05 17.43 60.50 13.45 73.99 10.32 M 70.01 17.88 C 50.11 22.04 30.41 31.43 17.90 47.94 C 15.30 51.78 12.09 55.50 11.19 60.17 C 12.80 60.33 14.39 60.64 15.95 61.08 C 17.67 61.33 19.38 61.65 21.03 62.20 C 24.02 62.36 27.01 62.36 30.00 62.20 C 32.24 61.36 34.65 61.30 37.01 61.14 C 40.92 60.02 44.91 59.17 48.90 58.43 C 50.17 58.08 52.16 58.32 52.60 56.69 C 56.07 45.99 58.94 35.07 61.14 24.04 C 64.42 26.22 67.64 28.81 69.38 32.44 C 72.85 38.99 72.06 46.98 69.43 53.68 C 83.63 50.48 97.21 44.96 110.15 38.37 C 111.19 37.94 112.25 37.04 113.44 37.56 C 113.76 40.70 114.46 44.48 112.05 47.00 C 108.24 52.10 101.66 53.26 95.93 54.92 C 88.03 57.12 79.93 58.39 71.94 60.19 C 69.55 60.87 66.02 60.03 64.89 62.87 C 55.71 80.56 46.87 98.45 39.02 116.77 C 43.41 116.67 47.68 115.69 52.00 115.07 C 73.39 110.53 94.45 101.75 110.36 86.38 C 120.16 75.92 124.31 61.07 123.22 46.95 C 121.97 41.85 121.60 36.30 118.41 31.91 C 113.31 24.31 104.74 20.10 96.11 17.83 C 89.49 16.46 82.72 16.29 75.99 16.82 C 74.07 17.54 72.03 17.72 70.01 17.88 Z" />
<path fill="#00aa00" opacity="1.00" d=" M 447.87 33.16 C 453.60 24.88 460.56 17.50 468.12 10.88 C 468.51 14.26 468.65 17.66 468.82 21.05 C 469.93 24.17 468.93 27.76 470.58 30.68 C 473.64 28.79 477.33 28.61 480.72 27.67 C 486.52 26.40 492.23 24.59 498.16 24.11 C 495.89 29.34 493.09 34.32 490.36 39.32 C 483.83 39.22 477.43 40.55 470.94 40.83 C 468.88 41.62 466.68 41.74 464.51 41.58 C 461.45 44.27 459.59 47.98 456.94 51.04 C 449.19 60.70 440.66 70.48 437.83 82.89 C 436.93 89.24 435.73 95.59 436.84 102.02 C 438.24 105.94 438.85 110.08 439.93 114.09 C 441.23 118.89 440.51 123.90 440.72 128.79 C 438.72 128.62 436.61 128.94 434.73 128.15 C 431.46 126.65 430.55 122.81 429.23 119.80 C 427.29 115.44 427.36 110.62 426.69 105.99 C 426.41 103.97 426.52 101.92 427.19 99.99 C 427.16 93.40 428.16 86.85 429.59 80.44 C 429.17 80.45 428.32 80.47 427.89 80.49 C 421.49 87.83 414.39 94.55 407.66 101.59 C 395.50 114.06 382.40 126.54 366.01 133.13 C 358.98 134.60 352.71 128.76 350.68 122.46 C 349.69 117.96 350.27 113.23 352.18 109.05 C 355.56 99.21 361.47 90.48 365.00 80.72 C 353.81 86.83 342.14 92.86 333.56 102.54 C 326.75 110.37 320.08 119.20 310.15 123.20 C 307.14 124.34 303.31 125.74 300.46 123.49 C 296.53 120.68 296.16 115.35 296.32 110.94 C 296.56 107.26 295.73 103.66 295.18 100.05 C 283.91 110.00 273.17 121.23 259.14 127.30 C 256.17 128.77 252.68 129.18 249.47 128.38 C 244.97 126.45 243.41 121.41 242.63 117.00 C 242.71 113.68 243.01 110.26 244.34 107.18 C 254.64 86.68 276.04 73.01 298.54 70.08 C 299.44 74.00 299.31 78.10 300.50 81.96 C 305.94 78.94 311.60 76.33 316.88 73.05 C 316.71 75.36 316.64 77.71 315.98 79.96 C 313.39 90.14 309.67 99.98 306.94 110.12 C 306.47 111.71 306.44 113.36 306.43 115.00 C 320.85 104.01 333.58 91.02 347.81 79.80 C 355.31 73.92 363.53 68.97 372.30 65.23 C 374.06 73.32 378.60 81.14 377.49 89.61 C 371.96 101.14 363.29 110.89 358.16 122.63 C 372.53 119.51 386.90 113.03 396.09 101.13 C 409.69 86.40 425.11 73.14 436.39 56.41 C 438.36 53.21 440.77 50.20 441.79 46.53 C 439.57 47.19 437.29 47.62 435.00 47.95 C 432.02 48.82 428.98 49.48 425.90 49.90 C 419.25 51.62 412.55 53.13 405.91 54.88 C 396.94 57.61 387.76 59.88 379.23 63.82 C 379.87 59.09 378.88 52.67 383.48 49.66 C 393.77 46.05 404.42 43.38 415.08 41.09 C 426.01 38.43 437.03 36.16 447.87 33.16 M 251.44 117.65 C 262.14 115.38 272.04 110.21 280.90 103.91 C 287.77 98.77 294.63 93.28 299.98 86.57 C 279.29 85.20 259.38 98.82 251.44 117.65 Z" />
</g>
</svg>
