<?xml version="1.0" standalone="no"?>
<!DOCTYPE svg PUBLIC "-//W3C//DTD SVG 20010904//EN"
 "http://www.w3.org/TR/2001/REC-SVG-20010904/DTD/svg10.dtd">
<svg version="1.0" xmlns="http://www.w3.org/2000/svg"
 width="1241.000000pt" height="1754.000000pt" viewBox="0 0 1241.000000 1754.000000"
 preserveAspectRatio="xMidYMid meet">
<metadata>
Created by potrace 1.16, written by Peter Selinger 2001-2019
</metadata>
<g transform="translate(0.000000,1754.000000) scale(0.100000,-0.100000)"
fill="#000000" stroke="none">
<path d="M1220 16130 l0 -150 72 0 c100 0 151 25 174 86 12 31 15 58 10 91
-12 93 -57 123 -181 123 l-75 0 0 -150z m181 93 c42 -41 41 -151 0 -185 -24
-18 -101 -34 -126 -24 -12 4 -15 27 -15 122 l0 116 60 -4 c44 -3 67 -10 81
-25z"/>
<path d="M1526 16213 c14 -37 40 -105 56 -151 28 -76 33 -83 56 -80 22 3 31
19 78 143 30 77 54 143 54 147 0 5 -9 8 -19 8 -15 0 -28 -24 -62 -115 -23 -64
-46 -118 -49 -120 -4 -3 -27 48 -52 113 -36 97 -47 118 -66 120 l-22 3 26 -68z"/>
<path d="M1859 16253 c-5 -15 -30 -81 -55 -145 -24 -65 -44 -120 -44 -123 0
-3 9 -5 19 -5 13 0 24 13 35 40 l16 40 66 0 66 0 15 -40 c11 -27 22 -40 35
-40 23 0 24 -4 -42 170 -43 112 -51 125 -74 128 -21 3 -28 -2 -37 -25z m65
-87 c14 -37 26 -70 26 -72 0 -2 -25 -4 -56 -4 -50 0 -55 2 -49 18 4 9 16 43
27 75 11 32 22 57 23 55 2 -2 15 -34 29 -72z"/>
<path d="M2250 16240 c0 -20 -5 -30 -15 -30 -8 0 -15 -7 -15 -15 0 -8 7 -15
15 -15 12 0 15 -16 15 -84 0 -76 2 -86 22 -100 29 -21 88 -21 88 -2 0 9 -12
16 -32 18 l-33 3 -3 83 -3 82 36 0 c24 0 35 4 35 15 0 10 -11 15 -35 15 -32 0
-35 2 -35 30 0 23 -4 30 -20 30 -16 0 -20 -7 -20 -30z"/>
<path d="M2080 16095 c0 -92 3 -115 14 -115 10 0 15 20 17 79 5 90 23 121 71
121 18 0 28 5 28 15 0 20 -49 20 -78 -1 -20 -14 -22 -14 -22 0 0 9 -7 16 -15
16 -12 0 -15 -19 -15 -115z"/>
</g>
</svg>
